# xmcd CD database file
#
# Track frame offsets:
#	150
#	18001
#	29010
#	46575
#	59573
#	70821
#	90455
#	105984
#	123866
#	136309
#	153997
#	166037
#	185608
#	201942
#	216080
#	234046
#	253676
#	268239
#	279474
#	297838
#	316151
#
# Disc length: 4382 seconds
#
# Revision: 0
# Processed by: cddbd v1.5.1PL0 Copyright (c) Steve Scherf et al.
# Submitted via: CDex 1.51
#
DISCID=1e111c15
DTITLE=Alan Jackson - The Best Contry
DYEAR=2003
DGENRE=Country
TTITLE0=Chata Hoochie
TTITLE1=Country
TTITLE2=Designated Drinker
TTITLE3=Don´t Rock The Juke Box
TTITLE4=Fool For You
TTITLE5=Gome Contry
TTITLE6=ILike It, I love It
TTITLE7=I´ll Go On Loving You
TTITLE8=It´s Allright To Be A Redneck
TTITLE9=It´s Five O Clock Some Were
TTITLE10=Little Bitty
TTITLE11=Margarita Ville
TTITLE12=Pickup Man
TTITLE13=Pop a Top Again
TTITLE14=Remember When
TTITLE15=She´s Gone Country
TTITLE16=Summer Times Blues
TTITLE17=Tall Tall Trees
TTITLE18=When Daddy Let Me Drive
TTITLE19=Werw I Come From
TTITLE20=Who I Am
EXTD=YEAR: 2003
EXTT0=
EXTT1=
EXTT2=
EXTT3=
EXTT4=
EXTT5=
EXTT6=
EXTT7=
EXTT8=
EXTT9=
EXTT10=
EXTT11=
EXTT12=
EXTT13=
EXTT14=
EXTT15=
EXTT16=
EXTT17=
EXTT18=
EXTT19=
EXTT20=
PLAYORDER=
